<svg width="81" height="32" viewBox="0 0 81 32" fill="none" xmlns="http://www.w3.org/2000/svg">
<path d="M33.7207 15.3061C33.8973 14.2485 33.9858 13.1474 33.9858 12.003C33.9858 11.388 33.9572 10.7616 33.9003 10.1249C33.8431 9.48773 33.7689 8.83504 33.678 8.16537C33.4954 6.89196 33.2249 5.65311 32.8656 4.44943C32.5064 3.24576 32.0817 2.02289 31.5916 0.78153H31.5744L28.1543 2.02862C28.599 3.10799 28.9806 4.20645 29.2999 5.3234C29.619 6.44096 29.87 7.55549 30.0525 8.66732C30.2236 9.83341 30.3091 10.9505 30.3091 12.0195C30.3091 13.703 30.101 15.2282 29.6849 16.5934C29.2686 17.9597 28.6501 19.1169 27.8293 20.0669H23.5539V20.0815L21.1256 20.0669C21.0684 19.7541 21.0114 19.441 20.9545 19.1278C20.8973 18.8147 20.8403 18.4963 20.7834 18.1722C20.6238 17.2549 20.4526 16.3376 20.2704 15.4197C20.0881 14.5023 19.8516 13.6169 19.5609 12.764C19.2699 11.9117 18.9051 11.1073 18.4662 10.3514C18.0273 9.59606 17.4715 8.92116 16.799 8.32736C16.1262 7.73397 15.3137 7.24227 14.362 6.85377C13.41 6.46527 12.2843 6.20621 10.9845 6.07678C10.0836 6.01176 9.21157 6.06844 8.36806 6.24651C7.52423 6.42447 6.73198 6.70002 5.99099 7.07254C5.24989 7.44506 4.57141 7.90631 3.95597 8.45689C3.34021 9.00738 2.81275 9.62289 2.37412 10.3029C1.93496 10.9829 1.59301 11.7146 1.34806 12.4967C1.10259 13.2799 0.980225 14.0972 0.980225 14.9502C0.980225 16.1807 1.22549 17.3359 1.71559 18.4153C2.2058 19.4952 2.87579 20.4368 3.72493 21.2412C4.57417 22.0455 5.57189 22.6822 6.71786 23.1517C7.86352 23.6212 9.08623 23.856 10.3861 23.856C11.5375 23.856 12.6063 23.678 13.5926 23.322C14.5783 22.9655 15.5104 22.4635 16.3885 21.8159V21.7994L14.0457 19.1278C13.5212 19.5163 12.9596 19.8218 12.3612 20.0425C11.7625 20.2639 11.1043 20.3749 10.3861 20.3749C9.59926 20.3749 8.85816 20.232 8.16291 19.9456C7.46734 19.6598 6.86029 19.2713 6.34164 18.7796C5.82256 18.2884 5.41227 17.7136 5.11033 17.0553C4.80797 16.3968 4.65695 15.6952 4.65695 14.9502C4.65695 14.1948 4.8137 13.4791 5.12731 12.8048C5.44082 12.1299 5.8683 11.5443 6.40998 11.0474C6.95135 10.5511 7.58154 10.1651 8.29971 9.89019C9.01789 9.61465 9.78753 9.48773 10.6084 9.50933C11.452 9.59606 12.1816 9.78488 12.7973 10.0759C13.4128 10.3674 13.943 10.7373 14.3876 11.1852C14.8323 11.6336 15.2055 12.1464 15.508 12.7238C15.8098 13.3011 16.0635 13.9166 16.2689 14.5693C16.4741 15.223 16.6451 15.903 16.7819 16.61C16.9186 17.3168 17.0495 18.0216 17.1751 18.7228C17.2778 19.3166 17.3804 19.8996 17.4829 20.4718C17.5857 21.044 17.7109 21.6214 17.8592 22.2044C17.9619 22.6037 18.1782 22.9252 18.509 23.1677C18.8395 23.4107 19.2157 23.532 19.6378 23.532L23.5539 23.5474V23.5485H29.4027L29.95 23.0304C30.611 22.4041 31.1924 21.6921 31.6943 20.8929C32.1959 20.0942 32.6149 19.2279 32.9511 18.294C33.2873 17.3602 33.5439 16.3644 33.7207 15.3061Z" fill="#376266"/>
<path d="M50.7666 17.7376C50.6591 18.5794 50.5013 19.3578 50.2982 20.0705H45.2008V20.0864C44.4146 20.0864 43.6737 19.9597 42.9783 19.7063C42.2829 19.4528 41.6759 19.0953 41.1574 18.6382C40.6387 18.1788 40.2277 17.6358 39.9241 17.009C39.6231 16.3844 39.4725 15.6988 39.4725 14.9521C39.4725 14.2075 39.6231 13.5039 39.9241 12.841C40.2277 12.1757 40.6387 11.5986 41.1574 11.1076C41.6759 10.6165 42.2829 10.2273 42.9783 9.94221C43.6737 9.65491 44.4146 9.51221 45.2008 9.51221C45.9871 9.51221 46.7279 9.65491 47.4233 9.94221C48.1187 10.2273 48.7305 10.6188 49.2538 11.1166C49.7771 11.6122 50.1906 12.1892 50.4941 12.8477C50.7952 13.5062 50.9458 14.2075 50.9458 14.9521C50.9363 15.9681 50.8765 16.8959 50.7666 17.7376ZM78.6432 15.2281C77.771 13.3274 76.4494 11.6709 74.6834 10.2566C72.9843 8.89681 70.8813 7.83553 68.372 7.07532C65.8651 6.31491 62.9401 5.93485 59.5991 5.93485C59.5896 5.93485 59.5681 5.95294 59.5394 5.99143C59.5107 6.02981 59.4749 6.15422 59.4295 6.37148C59.384 6.58643 59.3243 6.93041 59.2503 7.3988C59.1762 7.86949 59.0806 8.54157 58.9683 9.41504H59.5991C62.4836 9.41504 64.9809 9.72274 67.0911 10.3382C69.1988 10.9536 70.9434 11.8112 72.3223 12.9133C73.4622 13.8297 74.3584 14.8911 75.0084 16.0948C75.6585 17.2986 76.0743 18.6247 76.2558 20.0705H54.0597C54.4253 18.5591 54.607 16.8528 54.607 14.9521C54.607 13.7121 54.3608 12.5512 53.8708 11.4719C53.381 10.3925 52.7095 9.45122 51.8539 8.64568C50.9984 7.84226 49.9995 7.20877 48.8619 6.74259C47.7196 6.27873 46.5008 6.048 45.2008 6.048C43.9008 6.048 42.682 6.27873 41.5421 6.74259C40.4022 7.20877 39.4056 7.84226 38.5572 8.64568C37.7088 9.45122 37.035 10.3948 36.5402 11.4809C36.0431 12.5648 35.7947 13.7234 35.7947 14.9521C35.7947 16.1831 36.0408 17.3235 36.5307 18.3688C37.0206 19.4167 37.6945 20.3262 38.5477 21.0979C39.4032 21.8695 40.4022 22.4715 41.5421 22.9036C42.682 23.3358 43.9008 23.5507 45.2008 23.5507H48.5871C48.2215 24.0373 47.8008 24.4739 47.3205 24.8632C46.7733 25.3157 46.1782 25.696 45.5353 26.0059C44.8901 26.3114 44.2067 26.5603 43.4825 26.7504C42.7584 26.9382 42.0057 27.0739 41.2242 27.1554C40.4427 27.2346 39.6494 27.2753 38.8392 27.2753V30.7578C39.8548 30.7578 40.8538 30.7012 41.8407 30.5881C42.8254 30.4749 43.7813 30.2872 44.7061 30.0293C45.6286 29.7691 46.5127 29.4318 47.3563 29.0155C48.2 28.6014 48.9909 28.0854 49.7318 27.47C50.3603 26.9517 50.9314 26.3725 51.4524 25.7299C51.971 25.0871 52.4298 24.3608 52.8289 23.5507H80.0198V21.4939C79.9744 19.2175 79.5155 17.1289 78.6432 15.2281Z" fill="#376266"/>
<path d="M67.4977 25.8717C66.324 25.8717 65.3726 26.7726 65.3726 27.8838C65.3726 28.9951 66.324 29.896 67.4977 29.896C68.6714 29.896 69.6227 28.9951 69.6227 27.8838C69.6227 26.7726 68.6714 25.8717 67.4977 25.8717Z" fill="#E35746"/>
<path d="M7.76892 4.02441C8.42236 4.02441 8.99959 3.73922 9.3894 3.29978C9.77921 3.73922 10.3564 4.02441 11.01 4.02441C12.1836 4.02441 13.135 3.12352 13.135 2.01219C13.135 0.900868 12.1836 7.10487e-05 11.01 7.10487e-05C10.3564 7.10487e-05 9.77921 0.285263 9.3894 0.724607C8.99959 0.285263 8.42236 7.10487e-05 7.76892 7.10487e-05C6.59524 7.10487e-05 5.6438 0.900868 5.6438 2.01219C5.6438 3.12352 6.59524 4.02441 7.76892 4.02441Z" fill="#E35746"/>
<path d="M12.323 26.2047C12.1882 26.2047 12.0699 26.2495 11.9677 26.3386C11.8651 26.4282 11.8141 26.5391 11.8141 26.6716V29.8845C11.8141 30.032 11.7707 30.1702 11.685 30.2972C11.5985 30.4248 11.4854 30.5269 11.3454 30.6035C11.2054 30.6801 11.0548 30.718 10.893 30.718C10.7582 30.718 10.6386 30.6988 10.5334 30.6608C10.4285 30.6222 10.3221 30.5574 10.2145 30.4659C10.1498 30.4043 10.0785 30.3508 10.0003 30.3053C9.92227 30.2592 9.84278 30.2362 9.76191 30.2362C9.65971 30.2362 9.55613 30.2798 9.45095 30.3663C9.3461 30.4529 9.29346 30.5599 9.29346 30.6875C9.29346 30.774 9.32572 30.8637 9.39046 30.9552C9.5574 31.1744 9.77273 31.3431 10.0367 31.4601C10.3007 31.5771 10.586 31.6362 10.893 31.6362C11.254 31.6362 11.5798 31.5547 11.8707 31.3909C12.1616 31.2278 12.3931 31.0137 12.5653 30.7485C12.7375 30.4833 12.8239 30.1951 12.8239 29.8845V26.6716C12.8239 26.5391 12.778 26.4282 12.6866 26.3386C12.5949 26.2495 12.4739 26.2047 12.323 26.2047Z" fill="#E35746"/>
<path d="M16.9037 30.1681C16.8033 30.3604 16.6647 30.5143 16.4879 30.6275C16.3086 30.7384 16.1031 30.795 15.8642 30.795C15.6347 30.795 15.4291 30.7384 15.2523 30.6275C15.0731 30.5143 14.9345 30.3604 14.8341 30.1681C14.7361 29.9735 14.686 29.7562 14.686 29.5164C14.686 29.272 14.7361 29.0526 14.8341 28.8602C14.9345 28.6656 15.0731 28.5118 15.2523 28.4009C15.4291 28.2878 15.6347 28.2312 15.8642 28.2312C16.1031 28.2312 16.3086 28.2878 16.4879 28.4009C16.6647 28.5118 16.8033 28.6656 16.9037 28.8602C17.0017 29.0526 17.0519 29.272 17.0519 29.5164C17.0519 29.7562 17.0017 29.9735 16.9037 30.1681ZM17.8453 27.5206C17.7521 27.4347 17.6374 27.3917 17.4963 27.3917C17.3577 27.3917 17.2407 27.4347 17.1498 27.5251C17.059 27.6134 17.0112 27.7242 17.0112 27.8578V27.8691C16.9635 27.8283 16.9133 27.7854 16.8558 27.7424C16.7125 27.6405 16.5429 27.5568 16.3493 27.4913C16.1557 27.4234 15.943 27.3917 15.7112 27.3917C15.3504 27.3917 15.0229 27.4798 14.7266 27.6631C14.4303 27.8442 14.1937 28.0931 14.0192 28.4122C13.8448 28.7312 13.7563 29.0978 13.7563 29.5164C13.7563 29.9305 13.8448 30.2971 14.0192 30.6139C14.1937 30.933 14.4327 31.1841 14.7338 31.3651C15.0349 31.5462 15.3718 31.6367 15.7447 31.6367C15.9478 31.6367 16.1389 31.605 16.3134 31.5393C16.4879 31.476 16.6408 31.3992 16.7699 31.3063C16.8678 31.2385 16.9467 31.166 17.0137 31.0959C17.0137 31.2271 17.059 31.3381 17.1498 31.4262C17.2407 31.5144 17.3577 31.5597 17.4963 31.5597C17.6374 31.5597 17.7521 31.5144 17.8453 31.4262C17.9361 31.3357 17.9815 31.2249 17.9815 31.0937V27.8578C17.9815 27.7197 17.9361 27.6065 17.8453 27.5206Z" fill="#E35746"/>
<path d="M23.9571 27.466C23.7093 27.466 23.553 27.5625 23.4886 27.7567L22.6227 29.9564L22.0022 28.3606C21.9643 28.269 21.9144 28.1987 21.8525 28.1502C21.7908 28.1022 21.7003 28.078 21.582 28.078C21.372 28.078 21.2237 28.172 21.1375 28.3606L20.5005 29.9988L19.6271 27.7567C19.5945 27.6546 19.538 27.5806 19.4571 27.5345C19.3767 27.489 19.2849 27.466 19.1827 27.466C19.0317 27.466 18.9131 27.5146 18.827 27.611C18.7408 27.7082 18.6978 27.8177 18.6978 27.9403C18.6978 28.0014 18.7087 28.0599 18.7303 28.116L19.9663 31.2678C20.0038 31.3699 20.0725 31.4477 20.1721 31.5012C20.2717 31.5548 20.373 31.5735 20.4752 31.5585C20.6583 31.5479 20.7957 31.4514 20.8871 31.2678L21.538 29.386L22.2283 31.2678C22.3197 31.4514 22.457 31.5479 22.6402 31.5585C22.7481 31.5735 22.8503 31.5548 22.9473 31.5012C23.0442 31.4477 23.1115 31.3699 23.1494 31.2678L24.3854 28.116C24.3959 28.0904 24.4042 28.0636 24.4097 28.0356C24.415 28.0077 24.4177 27.9758 24.4177 27.9403C24.4177 27.8022 24.3719 27.6889 24.2802 27.5999C24.1889 27.5102 24.081 27.466 23.9571 27.466Z" fill="#E35746"/>
<path d="M25.7579 25.8955C25.6178 25.8955 25.5008 25.9397 25.4065 26.0294C25.3122 26.1184 25.2651 26.2292 25.2651 26.3618V31.0893C25.2651 31.2218 25.3108 31.3327 25.4026 31.4223C25.494 31.5113 25.607 31.5562 25.7418 31.5562C25.8819 31.5562 25.9988 31.5113 26.0932 31.4223C26.1875 31.3327 26.2345 31.2218 26.2345 31.0893V26.3618C26.2345 26.2292 26.1902 26.1184 26.1014 26.0294C26.0123 25.9397 25.8979 25.8955 25.7579 25.8955Z" fill="#E35746"/>
<path d="M30.3095 30.1681C30.2115 30.3604 30.0729 30.5143 29.8937 30.6275C29.7168 30.7384 29.5089 30.795 29.2724 30.795C29.0405 30.795 28.8374 30.7384 28.6582 30.6275C28.4813 30.5143 28.3427 30.3604 28.2423 30.1681C28.142 29.9735 28.0941 29.7562 28.0941 29.5164C28.0941 29.272 28.142 29.0526 28.2423 28.8602C28.3427 28.6656 28.4813 28.5118 28.6582 28.4009C28.8374 28.2878 29.0405 28.2312 29.2724 28.2312C29.5089 28.2312 29.7168 28.2878 29.8937 28.4009C30.0729 28.5118 30.2115 28.6656 30.3095 28.8602C30.4099 29.0526 30.4601 29.272 30.4601 29.5164C30.4601 29.7562 30.4099 29.9735 30.3095 30.1681ZM31.251 27.5206C31.1603 27.4347 31.0456 27.3917 30.9045 27.3917C30.7636 27.3917 30.6489 27.4347 30.558 27.5251C30.4648 27.6134 30.4194 27.7242 30.4194 27.8578V27.8691C30.3716 27.8283 30.3215 27.7854 30.2617 27.7424C30.1207 27.6405 29.9511 27.5568 29.7575 27.4913C29.5639 27.4234 29.3511 27.3917 29.1193 27.3917C28.7585 27.3917 28.4288 27.4798 28.1324 27.6631C27.8361 27.8442 27.6019 28.0931 27.4274 28.4122C27.2506 28.7312 27.1646 29.0978 27.1646 29.5164C27.1646 29.9305 27.2506 30.2971 27.4274 30.6139C27.6019 30.933 27.8409 31.1841 28.142 31.3651C28.4431 31.5462 28.78 31.6367 29.1504 31.6367C29.356 31.6367 29.5471 31.605 29.7216 31.5393C29.896 31.476 30.049 31.3992 30.1781 31.3063C30.276 31.2385 30.3526 31.166 30.4194 31.0959C30.4217 31.2271 30.4672 31.3381 30.558 31.4262C30.6489 31.5144 30.7636 31.5597 30.9045 31.5597C31.0456 31.5597 31.1603 31.5144 31.251 31.4262C31.3442 31.3357 31.3896 31.2249 31.3896 31.0937V27.8578C31.3896 27.7197 31.3442 27.6065 31.251 27.5206Z" fill="#E35746"/>
<path d="M36.0089 28.2549C35.9333 27.9929 35.7948 27.7824 35.5928 27.6244C35.3909 27.4662 35.096 27.3871 34.7081 27.3871C34.5306 27.3871 34.3662 27.4139 34.2153 27.4674C34.0644 27.521 33.9271 27.5913 33.8034 27.6778C33.6796 27.7643 33.5743 27.8578 33.4882 27.9567C33.4539 27.9964 33.4361 28.0305 33.4077 28.0683V26.3618C33.4077 26.2293 33.3616 26.1184 33.2703 26.0294C33.1786 25.9397 33.0629 25.8955 32.9228 25.8955C32.7828 25.8955 32.667 25.9397 32.5753 26.0294C32.4836 26.1184 32.438 26.2293 32.438 26.3618V31.0893C32.438 31.2219 32.4836 31.3327 32.5753 31.4223C32.667 31.5113 32.7828 31.5562 32.9228 31.5562C33.0629 31.5562 33.1786 31.5113 33.2703 31.4223C33.3616 31.3327 33.4077 31.2219 33.4077 31.0893V29.1308C33.4077 28.9627 33.4439 28.8109 33.5165 28.6758C33.5895 28.5406 33.6983 28.4323 33.8439 28.3508C33.9892 28.2692 34.1641 28.2282 34.3689 28.2282C34.5789 28.2282 34.7407 28.2692 34.8537 28.3508C34.9668 28.4323 35.0447 28.5406 35.0878 28.6758C35.1309 28.8109 35.1525 28.9627 35.1525 29.1308V31.0893C35.1525 31.2219 35.1983 31.3327 35.29 31.4223C35.3814 31.5113 35.497 31.5562 35.6375 31.5562C35.7771 31.5562 35.8932 31.5113 35.9846 31.4223C36.0763 31.3327 36.1219 31.2219 36.1219 31.0893V29.1308C36.1219 28.8096 36.0841 28.5176 36.0089 28.2549Z" fill="#E35746"/>
</svg>
