<svg width="2510" height="2554" viewBox="0 0 2510 2554" fill="none" xmlns="http://www.w3.org/2000/svg">
<path d="M1771.34 2553.58H738.656C332.396 2553.58 0 2233.38 0 1842.02V711.561C0 320.203 332.396 0 738.656 0H1771.34C2177.6 0 2509.99 320.203 2509.99 711.561V1842.02C2509.99 2233.38 2177.6 2553.58 1771.34 2553.58Z" fill="white"/>
<path d="M1210.73 1986.46C1212.94 1972.95 1214.05 1958.89 1214.05 1944.28C1214.05 1936.43 1213.69 1928.43 1212.98 1920.3C1212.26 1912.17 1211.33 1903.83 1210.19 1895.28C1207.9 1879.03 1204.5 1863.21 1199.99 1847.84C1195.49 1832.47 1190.16 1816.86 1184 1801.01H1183.79L1140.87 1816.93C1146.45 1830.71 1151.24 1844.74 1155.24 1859C1159.25 1873.27 1162.4 1887.5 1164.69 1901.69C1166.84 1916.58 1167.91 1930.84 1167.91 1944.49C1167.91 1965.99 1165.3 1985.46 1160.08 2002.89C1154.85 2020.34 1147.09 2035.11 1136.79 2047.24H1083.13V2047.43L1052.66 2047.24C1051.94 2043.25 1051.22 2039.25 1050.51 2035.25C1049.79 2031.25 1049.08 2027.19 1048.36 2023.05C1046.36 2011.34 1044.21 1999.63 1041.92 1987.91C1039.64 1976.19 1036.67 1964.89 1033.02 1954C1029.37 1943.12 1024.79 1932.85 1019.28 1923.2C1013.77 1913.55 1006.8 1904.93 998.358 1897.35C989.914 1889.78 979.717 1883.5 967.774 1878.54C955.826 1873.58 941.699 1870.27 925.385 1868.62C914.08 1867.79 903.136 1868.51 892.55 1870.78C881.96 1873.06 872.017 1876.57 862.718 1881.33C853.417 1886.09 844.902 1891.98 837.178 1899.01C829.45 1906.03 822.831 1913.89 817.326 1922.58C811.815 1931.26 807.523 1940.6 804.449 1950.59C801.368 1960.59 799.833 1971.02 799.833 1981.91C799.833 1997.62 802.911 2012.37 809.062 2026.15C815.214 2039.94 823.622 2051.96 834.279 2062.24C844.937 2072.5 857.458 2080.63 871.84 2086.63C886.218 2092.62 901.563 2095.62 917.876 2095.62C932.326 2095.62 945.74 2093.35 958.117 2088.8C970.488 2084.25 982.186 2077.84 993.206 2069.57V2069.36L963.805 2035.25C957.222 2040.21 950.174 2044.11 942.663 2046.93C935.15 2049.76 926.889 2051.17 917.876 2051.17C908.001 2051.17 898.701 2049.35 889.975 2045.69C881.246 2042.04 873.627 2037.08 867.118 2030.81C860.604 2024.53 855.455 2017.19 851.665 2008.79C847.871 2000.38 845.976 1991.42 845.976 1981.91C845.976 1972.27 847.943 1963.13 851.879 1954.52C855.813 1945.9 861.178 1938.43 867.976 1932.08C874.77 1925.75 882.679 1920.82 891.692 1917.31C900.705 1913.79 910.364 1912.17 920.667 1912.44C931.253 1913.55 940.409 1915.96 948.137 1919.68C955.861 1923.4 962.515 1928.12 968.095 1933.84C973.675 1939.57 978.36 1946.11 982.156 1953.49C985.944 1960.86 989.127 1968.72 991.705 1977.05C994.28 1985.4 996.427 1994.08 998.144 2003.1C999.859 2012.13 1001.5 2021.13 1003.08 2030.08C1004.37 2037.66 1005.65 2045.11 1006.94 2052.41C1008.23 2059.72 1009.8 2067.09 1011.66 2074.53C1012.95 2079.63 1015.67 2083.74 1019.82 2086.83C1023.97 2089.93 1028.69 2091.48 1033.98 2091.48L1083.13 2091.68V2091.69H1156.53L1163.4 2085.08C1171.7 2077.08 1179 2067.99 1185.29 2057.79C1191.59 2047.59 1196.85 2036.53 1201.07 2024.61C1205.29 2012.68 1208.51 1999.97 1210.73 1986.46Z" fill="#376266"/>
<path d="M1424.69 2017.46C1423.34 2028.21 1421.36 2038.15 1418.81 2047.25H1354.84V2047.45C1344.97 2047.45 1335.67 2045.83 1326.95 2042.6C1318.22 2039.36 1310.6 2034.8 1304.09 2028.96C1297.58 2023.1 1292.43 2016.16 1288.62 2008.16C1284.84 2000.18 1282.95 1991.43 1282.95 1981.9C1282.95 1972.39 1284.84 1963.41 1288.62 1954.94C1292.43 1946.45 1297.58 1939.08 1304.09 1932.81C1310.6 1926.54 1318.22 1921.57 1326.95 1917.93C1335.67 1914.26 1344.97 1912.44 1354.84 1912.44C1364.71 1912.44 1374 1914.26 1382.73 1917.93C1391.46 1921.57 1399.14 1926.57 1405.7 1932.93C1412.27 1939.25 1417.46 1946.62 1421.27 1955.03C1425.05 1963.44 1426.94 1972.39 1426.94 1981.9C1426.82 1994.87 1426.07 2006.71 1424.69 2017.46ZM1774.54 1985.42C1763.59 1961.15 1747.01 1940 1724.84 1921.95C1703.52 1904.58 1677.13 1891.03 1645.64 1881.33C1614.17 1871.62 1577.47 1866.77 1535.54 1866.77C1535.42 1866.77 1535.15 1867 1534.79 1867.49C1534.43 1867.98 1533.98 1869.57 1533.41 1872.34C1532.84 1875.09 1532.09 1879.48 1531.16 1885.46C1530.23 1891.47 1529.03 1900.05 1527.62 1911.2H1535.54C1571.74 1911.2 1603.08 1915.13 1629.56 1922.99C1656.01 1930.85 1677.91 1941.79 1695.21 1955.87C1709.52 1967.57 1720.77 1981.12 1728.92 1996.49C1737.08 2011.86 1742.3 2028.79 1744.58 2047.25H1466.02C1470.61 2027.95 1472.89 2006.17 1472.89 1981.9C1472.89 1966.07 1469.8 1951.24 1463.65 1937.46C1457.5 1923.68 1449.07 1911.66 1438.33 1901.38C1427.6 1891.12 1415.06 1883.03 1400.79 1877.08C1386.45 1871.16 1371.15 1868.21 1354.84 1868.21C1338.52 1868.21 1323.23 1871.16 1308.92 1877.08C1294.62 1883.03 1282.11 1891.12 1271.46 1901.38C1260.81 1911.66 1252.36 1923.71 1246.15 1937.58C1239.91 1951.42 1236.79 1966.21 1236.79 1981.9C1236.79 1997.61 1239.88 2012.18 1246.03 2025.52C1252.18 2038.9 1260.63 2050.51 1271.34 2060.37C1282.08 2070.22 1294.62 2077.9 1308.92 2083.42C1323.23 2088.94 1338.52 2091.68 1354.84 2091.68H1397.34C1392.75 2097.9 1387.47 2103.47 1381.44 2108.44C1374.57 2114.22 1367.11 2119.07 1359.04 2123.03C1350.94 2126.93 1342.36 2130.11 1333.27 2132.54C1324.19 2134.93 1314.74 2136.67 1304.93 2137.71C1295.12 2138.72 1285.17 2139.24 1275 2139.24V2183.7C1287.75 2183.7 1300.28 2182.98 1312.67 2181.54C1325.03 2180.09 1337.02 2177.69 1348.63 2174.4C1360.21 2171.08 1371.3 2166.77 1381.89 2161.46C1392.48 2156.17 1402.4 2149.58 1411.7 2141.72C1419.59 2135.11 1426.76 2127.71 1433.3 2119.51C1439.8 2111.3 1445.56 2102.03 1450.57 2091.68H1791.82V2065.42C1791.25 2036.36 1785.49 2009.69 1774.54 1985.42Z" fill="#376266"/>
<path d="M1634.63 2121.32C1619.9 2121.32 1607.96 2132.83 1607.96 2147.02C1607.96 2161.2 1619.9 2172.71 1634.63 2172.71C1649.36 2172.71 1661.3 2161.2 1661.3 2147.02C1661.3 2132.83 1649.36 2121.32 1634.63 2121.32Z" fill="#E35746"/>
<path d="M885.049 1842.39C893.25 1842.39 900.494 1838.75 905.386 1833.14C910.278 1838.75 917.523 1842.39 925.724 1842.39C940.453 1842.39 952.393 1830.89 952.393 1816.7C952.393 1802.51 940.453 1791.01 925.724 1791.01C917.523 1791.01 910.278 1794.65 905.386 1800.26C900.494 1794.65 893.25 1791.01 885.049 1791.01C870.32 1791.01 858.379 1802.51 858.379 1816.7C858.379 1830.89 870.32 1842.39 885.049 1842.39Z" fill="#E35746"/>
<path d="M942.205 2125.59C940.514 2125.59 939.029 2126.16 937.746 2127.3C936.458 2128.44 935.819 2129.86 935.819 2131.55V2172.57C935.819 2174.45 935.274 2176.22 934.198 2177.84C933.112 2179.47 931.694 2180.77 929.936 2181.75C928.179 2182.73 926.289 2183.21 924.259 2183.21C922.568 2183.21 921.067 2182.97 919.745 2182.48C918.429 2181.99 917.093 2181.16 915.744 2179.99C914.932 2179.21 914.037 2178.52 913.055 2177.94C912.076 2177.35 911.079 2177.06 910.064 2177.06C908.781 2177.06 907.481 2177.62 906.161 2178.72C904.845 2179.83 904.185 2181.19 904.185 2182.82C904.185 2183.93 904.59 2185.07 905.402 2186.24C907.497 2189.04 910.2 2191.19 913.512 2192.69C916.826 2194.18 920.406 2194.94 924.259 2194.94C928.789 2194.94 932.878 2193.9 936.529 2191.8C940.18 2189.72 943.084 2186.99 945.246 2183.6C947.408 2180.22 948.492 2176.54 948.492 2172.57V2131.55C948.492 2129.86 947.915 2128.44 946.769 2127.3C945.618 2126.16 944.099 2125.59 942.205 2125.59Z" fill="#E35746"/>
<path d="M999.648 2176.19C998.388 2178.65 996.649 2180.61 994.43 2182.06C992.18 2183.47 989.6 2184.2 986.602 2184.2C983.723 2184.2 981.143 2183.47 978.924 2182.06C976.674 2180.61 974.935 2178.65 973.675 2176.19C972.445 2173.71 971.817 2170.93 971.817 2167.87C971.817 2164.75 972.445 2161.95 973.675 2159.49C974.935 2157.01 976.674 2155.04 978.924 2153.63C981.143 2152.18 983.723 2151.46 986.602 2151.46C989.6 2151.46 992.18 2152.18 994.43 2153.63C996.649 2155.04 998.388 2157.01 999.648 2159.49C1000.88 2161.95 1001.51 2164.75 1001.51 2167.87C1001.51 2170.93 1000.88 2173.71 999.648 2176.19ZM1011.47 2142.39C1010.3 2141.29 1008.86 2140.74 1007.09 2140.74C1005.35 2140.74 1003.88 2141.29 1002.74 2142.45C1001.6 2143.57 1001 2144.99 1001 2146.69V2146.84C1000.4 2146.32 999.768 2145.77 999.048 2145.22C997.248 2143.92 995.12 2142.85 992.69 2142.01C990.261 2141.15 987.592 2140.74 984.683 2140.74C980.155 2140.74 976.044 2141.87 972.326 2144.21C968.607 2146.52 965.638 2149.7 963.448 2153.77C961.259 2157.85 960.149 2162.53 960.149 2167.87C960.149 2173.16 961.259 2177.84 963.448 2181.88C965.638 2185.96 968.637 2189.16 972.416 2191.47C976.195 2193.79 980.424 2194.94 985.103 2194.94C987.652 2194.94 990.051 2194.54 992.24 2193.7C994.43 2192.89 996.349 2191.91 997.969 2190.72C999.198 2189.86 1000.19 2188.93 1001.03 2188.04C1001.03 2189.71 1001.6 2191.13 1002.74 2192.25C1003.88 2193.38 1005.35 2193.96 1007.09 2193.96C1008.86 2193.96 1010.3 2193.38 1011.47 2192.25C1012.61 2191.1 1013.18 2189.68 1013.18 2188.01V2146.69C1013.18 2144.93 1012.61 2143.49 1011.47 2142.39Z" fill="#E35746"/>
<path d="M1088.21 2141.71C1085.1 2141.71 1083.14 2142.94 1082.33 2145.42L1071.46 2173.5L1063.67 2153.13C1063.2 2151.96 1062.57 2151.06 1061.79 2150.44C1061.02 2149.83 1059.88 2149.52 1058.4 2149.52C1055.76 2149.52 1053.9 2150.72 1052.82 2153.13L1044.83 2174.04L1033.87 2145.42C1033.46 2144.11 1032.75 2143.17 1031.73 2142.58C1030.72 2142 1029.57 2141.71 1028.29 2141.71C1026.39 2141.71 1024.9 2142.33 1023.82 2143.56C1022.74 2144.8 1022.2 2146.2 1022.2 2147.76C1022.2 2148.54 1022.34 2149.29 1022.61 2150.01L1038.12 2190.25C1038.59 2191.55 1039.46 2192.54 1040.71 2193.23C1041.96 2193.91 1043.23 2194.15 1044.51 2193.96C1046.81 2193.82 1048.53 2192.59 1049.68 2190.25L1057.85 2166.22L1066.51 2190.25C1067.66 2192.59 1069.38 2193.82 1071.68 2193.96C1073.03 2194.15 1074.32 2193.91 1075.53 2193.23C1076.75 2192.54 1077.6 2191.55 1078.07 2190.25L1093.58 2150.01C1093.71 2149.68 1093.82 2149.34 1093.89 2148.98C1093.95 2148.62 1093.99 2148.22 1093.99 2147.76C1093.99 2146 1093.41 2144.55 1092.26 2143.42C1091.12 2142.27 1089.76 2141.71 1088.21 2141.71Z" fill="#E35746"/>
<path d="M1110.81 2121.68C1109.06 2121.68 1107.59 2122.25 1106.4 2123.39C1105.22 2124.53 1104.63 2125.94 1104.63 2127.64V2188C1104.63 2189.69 1105.2 2191.11 1106.36 2192.25C1107.5 2193.39 1108.92 2193.96 1110.61 2193.96C1112.37 2193.96 1113.84 2193.39 1115.02 2192.25C1116.21 2191.11 1116.8 2189.69 1116.8 2188V2127.64C1116.8 2125.94 1116.24 2124.53 1115.13 2123.39C1114.01 2122.25 1112.57 2121.68 1110.81 2121.68Z" fill="#E35746"/>
<path d="M1167.93 2176.19C1166.7 2178.65 1164.96 2180.61 1162.71 2182.06C1160.49 2183.47 1157.88 2184.2 1154.92 2184.2C1152 2184.2 1149.46 2183.47 1147.21 2182.06C1144.99 2180.61 1143.25 2178.65 1141.99 2176.19C1140.73 2173.71 1140.13 2170.93 1140.13 2167.87C1140.13 2164.75 1140.73 2161.95 1141.99 2159.49C1143.25 2157.01 1144.99 2155.04 1147.21 2153.63C1149.46 2152.18 1152 2151.46 1154.92 2151.46C1157.88 2151.46 1160.49 2152.18 1162.71 2153.63C1164.96 2155.04 1166.7 2157.01 1167.93 2159.49C1169.19 2161.95 1169.82 2164.75 1169.82 2167.87C1169.82 2170.93 1169.19 2173.71 1167.93 2176.19ZM1179.75 2142.39C1178.61 2141.29 1177.17 2140.74 1175.4 2140.74C1173.63 2140.74 1172.19 2141.29 1171.05 2142.45C1169.88 2143.57 1169.31 2144.99 1169.31 2146.69V2146.84C1168.71 2146.32 1168.08 2145.77 1167.33 2145.22C1165.56 2143.92 1163.43 2142.85 1161 2142.01C1158.57 2141.15 1155.9 2140.74 1152.99 2140.74C1148.47 2140.74 1144.33 2141.87 1140.61 2144.21C1136.89 2146.52 1133.95 2149.7 1131.76 2153.77C1129.54 2157.85 1128.46 2162.53 1128.46 2167.87C1128.46 2173.16 1129.54 2177.84 1131.76 2181.88C1133.95 2185.96 1136.95 2189.16 1140.73 2191.47C1144.51 2193.79 1148.74 2194.94 1153.38 2194.94C1155.96 2194.94 1158.36 2194.54 1160.55 2193.7C1162.74 2192.89 1164.66 2191.91 1166.28 2190.72C1167.51 2189.86 1168.47 2188.93 1169.31 2188.04C1169.34 2189.71 1169.91 2191.13 1171.05 2192.25C1172.19 2193.38 1173.63 2193.96 1175.4 2193.96C1177.17 2193.96 1178.61 2193.38 1179.75 2192.25C1180.92 2191.1 1181.49 2189.68 1181.49 2188.01V2146.69C1181.49 2144.93 1180.92 2143.49 1179.75 2142.39Z" fill="#E35746"/>
<path d="M1239.48 2151.81C1238.53 2148.46 1236.79 2145.78 1234.25 2143.76C1231.72 2141.74 1228.02 2140.73 1223.15 2140.73C1220.92 2140.73 1218.86 2141.07 1216.97 2141.75C1215.07 2142.44 1213.35 2143.34 1211.8 2144.44C1210.24 2145.55 1208.92 2146.74 1207.84 2148C1207.41 2148.51 1207.19 2148.94 1206.83 2149.43V2127.64C1206.83 2125.95 1206.25 2124.53 1205.11 2123.39C1203.96 2122.25 1202.5 2121.68 1200.75 2121.68C1198.99 2121.68 1197.54 2122.25 1196.39 2123.39C1195.23 2124.53 1194.66 2125.95 1194.66 2127.64V2188C1194.66 2189.69 1195.23 2191.11 1196.39 2192.25C1197.54 2193.39 1198.99 2193.96 1200.75 2193.96C1202.5 2193.96 1203.96 2193.39 1205.11 2192.25C1206.25 2191.11 1206.83 2189.69 1206.83 2188V2162.99C1206.83 2160.85 1207.29 2158.91 1208.2 2157.18C1209.11 2155.46 1210.48 2154.07 1212.31 2153.03C1214.13 2151.99 1216.32 2151.47 1218.9 2151.47C1221.53 2151.47 1223.56 2151.99 1224.98 2153.03C1226.4 2154.07 1227.38 2155.46 1227.92 2157.18C1228.46 2158.91 1228.73 2160.85 1228.73 2162.99V2188C1228.73 2189.69 1229.3 2191.11 1230.45 2192.25C1231.6 2193.39 1233.05 2193.96 1234.82 2193.96C1236.57 2193.96 1238.03 2193.39 1239.17 2192.25C1240.32 2191.11 1240.9 2189.69 1240.9 2188V2162.99C1240.9 2158.89 1240.42 2155.16 1239.48 2151.81Z" fill="#E35746"/>
<path d="M1119.98 1420.24V1421.11C1119.98 1495.89 1057.21 1556.65 979.589 1556.65C901.964 1556.65 838.893 1495.89 838.893 1421.11C838.893 1395.7 846.171 1371.75 858.906 1351.59C920.46 1394.82 996.266 1420.24 1076.01 1420.24H1119.98Z" fill="#376266"/>
<path d="M2086.03 736.476L2009.59 1121.89C1986.01 1240.63 1898.44 1334.35 1785.28 1372.49C1758.23 1325.08 1705.86 1292.87 1645.82 1292.87C1578.25 1292.87 1520.36 1333.69 1497.39 1391.07H1076.07C917.021 1391.07 779.449 1284.49 745.32 1134.86L691.154 856.636C680.657 802.781 631.861 763.779 574.998 763.779H361.338C358.308 763.779 355.878 761.439 355.878 758.52V698.137C355.878 631.976 411.543 578.325 480.254 578.325H577.697C723.036 578.325 848.101 677.394 876.143 814.8L933.367 1095.1C948.093 1159.65 1007.45 1205.61 1076.04 1205.61H1671.7C1744.4 1205.61 1806.87 1155.86 1820.52 1087.04L1870.09 836.873C1876.81 802.984 1849.88 771.608 1814.07 771.608H1607.28C1575.79 771.608 1550.23 796.194 1550.23 826.559V854.034C1550.23 925.078 1490.46 982.659 1416.71 982.659H1363.18C1360.15 982.659 1357.72 980.319 1357.72 977.401V717.928C1357.72 645.151 1418.96 586.155 1494.54 586.155H1950.35C1981.66 586.155 2013.21 594.128 2037.78 612.792C2077.4 642.926 2095.15 690.395 2086.03 736.476Z" fill="#376266"/>
<path d="M1775.32 1446.08C1775.32 1514.98 1717.35 1570.83 1645.82 1570.83C1574.29 1570.83 1516.31 1514.98 1516.31 1446.08C1516.31 1426.34 1521.08 1407.65 1529.57 1391.07C1550.65 1349.75 1594.77 1321.33 1645.82 1321.33C1692.54 1321.33 1733.51 1345.16 1756.28 1380.93C1768.36 1399.88 1775.32 1422.21 1775.32 1446.08Z" fill="#E35746"/>
</svg>
