<svg width="200" height="200" viewBox="0 0 200 200" fill="none" xmlns="http://www.w3.org/2000/svg">
<path d="M141.143 200H58.8572C26.4858 200 0 174.921 0 144.27V55.7304C0 25.0787 26.4858 0 58.8572 0H141.143C173.514 0 200 25.0787 200 55.7304V144.27C200 174.921 173.514 200 141.143 200Z" fill="white"/>
<path d="M96.4732 155.581C96.6498 154.523 96.7383 153.422 96.7383 152.278C96.7383 151.663 96.7096 151.037 96.6527 150.4C96.5955 149.763 96.5214 149.11 96.4304 148.44C96.2479 147.167 95.9773 145.928 95.618 144.724C95.2589 143.521 94.8341 142.298 94.344 141.056H94.3268L90.9067 142.304C91.3514 143.383 91.733 144.481 92.0524 145.598C92.3714 146.716 92.6224 147.83 92.8049 148.942C92.976 150.108 93.0616 151.225 93.0616 152.294C93.0616 153.978 92.8534 155.503 92.4373 156.868C92.0211 158.235 91.4026 159.392 90.5818 160.342H86.3064V160.356L83.878 160.342C83.8208 160.029 83.7638 159.716 83.7069 159.403C83.6497 159.09 83.5928 158.771 83.5359 158.447C83.3763 157.53 83.2051 156.612 83.0228 155.695C82.8405 154.777 82.6041 153.892 82.3134 153.039C82.0224 152.187 81.6575 151.382 81.2187 150.626C80.7797 149.871 80.2239 149.196 79.5515 148.602C78.8786 148.009 78.0661 147.517 77.1144 147.129C76.1625 146.74 75.0368 146.481 73.7369 146.352C72.8361 146.287 71.964 146.343 71.1205 146.521C70.2767 146.699 69.4844 146.975 68.7434 147.347C68.0023 147.72 67.3238 148.181 66.7084 148.732C66.0926 149.282 65.5652 149.898 65.1266 150.578C64.6874 151.258 64.3455 151.989 64.1005 152.772C63.855 153.555 63.7327 154.372 63.7327 155.225C63.7327 156.456 63.9779 157.611 64.468 158.69C64.9582 159.77 65.6282 160.712 66.4774 161.516C67.3266 162.32 68.3243 162.957 69.4703 163.427C70.616 163.896 71.8387 164.131 73.1385 164.131C74.2899 164.131 75.3588 163.953 76.345 163.597C77.3307 163.24 78.2629 162.738 79.141 162.091V162.074L76.7982 159.403C76.2737 159.791 75.7121 160.097 75.1136 160.317C74.5149 160.539 73.8567 160.65 73.1385 160.65C72.3517 160.65 71.6106 160.507 70.9154 160.22C70.2198 159.935 69.6127 159.546 69.0941 159.054C68.575 158.563 68.1647 157.988 67.8628 157.33C67.5604 156.672 67.4094 155.97 67.4094 155.225C67.4094 154.47 67.5661 153.754 67.8798 153.08C68.1933 152.405 68.6207 151.819 69.1624 151.322C69.7038 150.826 70.334 150.44 71.0522 150.165C71.7703 149.89 72.54 149.763 73.3609 149.784C74.2044 149.871 74.934 150.06 75.5498 150.351C76.1652 150.642 76.6954 151.012 77.14 151.46C77.5847 151.909 77.958 152.421 78.2604 152.999C78.5623 153.576 78.8159 154.192 79.0214 154.844C79.2265 155.498 79.3976 156.178 79.5344 156.885C79.6711 157.592 79.8019 158.296 79.9275 158.998C80.0302 159.592 80.1329 160.175 80.2354 160.747C80.3381 161.319 80.4633 161.896 80.6116 162.479C80.7143 162.879 80.9306 163.2 81.2614 163.443C81.5919 163.686 81.9681 163.807 82.3902 163.807L86.3064 163.822V163.823H92.1551L92.7024 163.305C93.3634 162.679 93.9449 161.967 94.4468 161.168C94.9483 160.369 95.3673 159.503 95.7035 158.569C96.0397 157.635 96.2964 156.639 96.4732 155.581Z" fill="#376266"/>
<path d="M113.519 158.012C113.412 158.854 113.254 159.633 113.051 160.345H107.953V160.361C107.167 160.361 106.426 160.235 105.731 159.981C105.035 159.728 104.428 159.37 103.91 158.913C103.391 158.454 102.98 157.911 102.677 157.284C102.376 156.659 102.225 155.974 102.225 155.227C102.225 154.482 102.376 153.779 102.677 153.116C102.98 152.451 103.391 151.873 103.91 151.383C104.428 150.891 105.035 150.502 105.731 150.217C106.426 149.93 107.167 149.787 107.953 149.787C108.74 149.787 109.48 149.93 110.176 150.217C110.871 150.502 111.483 150.894 112.006 151.392C112.53 151.887 112.943 152.464 113.247 153.123C113.548 153.781 113.698 154.482 113.698 155.227C113.689 156.243 113.629 157.171 113.519 158.012ZM141.396 155.503C140.523 153.602 139.202 151.946 137.436 150.532C135.737 149.172 133.634 148.11 131.124 147.35C128.618 146.59 125.693 146.21 122.352 146.21C122.342 146.21 122.32 146.228 122.292 146.266C122.263 146.305 122.227 146.429 122.182 146.646C122.136 146.861 122.077 147.205 122.003 147.674C121.929 148.144 121.833 148.816 121.721 149.69H122.352C125.236 149.69 127.733 149.998 129.844 150.613C131.951 151.229 133.696 152.086 135.075 153.188C136.215 154.105 137.111 155.166 137.761 156.37C138.411 157.574 138.827 158.9 139.008 160.345H116.812C117.178 158.834 117.359 157.128 117.359 155.227C117.359 153.987 117.113 152.826 116.623 151.747C116.133 150.667 115.462 149.726 114.606 148.921C113.751 148.117 112.752 147.484 111.614 147.017C110.472 146.554 109.253 146.323 107.953 146.323C106.653 146.323 105.434 146.554 104.295 147.017C103.155 147.484 102.158 148.117 101.31 148.921C100.461 149.726 99.7874 150.67 99.2927 151.756C98.7956 152.84 98.5471 153.998 98.5471 155.227C98.5471 156.458 98.7932 157.598 99.2831 158.644C99.773 159.692 100.447 160.601 101.3 161.373C102.156 162.144 103.155 162.746 104.295 163.178C105.434 163.611 106.653 163.826 107.953 163.826H111.34C110.974 164.312 110.553 164.749 110.073 165.138C109.526 165.591 108.931 165.971 108.288 166.281C107.643 166.586 106.959 166.835 106.235 167.025C105.511 167.213 104.758 167.349 103.977 167.43C103.195 167.51 102.402 167.55 101.592 167.55V171.033C102.607 171.033 103.606 170.976 104.593 170.863C105.578 170.75 106.534 170.562 107.459 170.304C108.381 170.044 109.265 169.707 110.109 169.29C110.952 168.876 111.743 168.36 112.484 167.745C113.113 167.227 113.684 166.647 114.205 166.005C114.723 165.362 115.182 164.636 115.581 163.826H142.772V161.769C142.727 159.492 142.268 157.404 141.396 155.503Z" fill="#376266"/>
<path d="M130.25 166.147C129.076 166.147 128.125 167.047 128.125 168.159C128.125 169.27 129.076 170.171 130.25 170.171C131.424 170.171 132.375 169.27 132.375 168.159C132.375 167.047 131.424 166.147 130.25 166.147Z" fill="#E35746"/>
<path d="M70.5212 144.299C71.1747 144.299 71.7519 144.014 72.1417 143.575C72.5315 144.014 73.1088 144.299 73.7623 144.299C74.9359 144.299 75.8873 143.398 75.8873 142.287C75.8873 141.176 74.9359 140.275 73.7623 140.275C73.1088 140.275 72.5315 140.56 72.1417 141C71.7519 140.56 71.1747 140.275 70.5212 140.275C69.3476 140.275 68.3961 141.176 68.3961 142.287C68.3961 143.398 69.3476 144.299 70.5212 144.299Z" fill="#E35746"/>
<path d="M75.0755 166.48C74.9407 166.48 74.8223 166.524 74.7201 166.613C74.6175 166.703 74.5666 166.814 74.5666 166.947V170.159C74.5666 170.307 74.5232 170.445 74.4374 170.572C74.3509 170.7 74.2379 170.802 74.0978 170.878C73.9578 170.955 73.8072 170.993 73.6455 170.993C73.5107 170.993 73.3911 170.974 73.2858 170.936C73.1809 170.897 73.0745 170.832 72.967 170.741C72.9023 170.679 72.8309 170.626 72.7527 170.58C72.6747 170.534 72.5952 170.511 72.5144 170.511C72.4121 170.511 72.3086 170.555 72.2034 170.641C72.0985 170.728 72.0459 170.835 72.0459 170.962C72.0459 171.049 72.0782 171.139 72.1429 171.23C72.3098 171.449 72.5252 171.618 72.7891 171.735C73.0532 171.852 73.3384 171.911 73.6455 171.911C74.0064 171.911 74.3322 171.83 74.6231 171.666C74.914 171.503 75.1455 171.289 75.3177 171.023C75.49 170.758 75.5764 170.47 75.5764 170.159V166.947C75.5764 166.814 75.5304 166.703 75.439 166.613C75.3474 166.524 75.2264 166.48 75.0755 166.48Z" fill="#E35746"/>
<path d="M79.6563 170.443C79.5559 170.635 79.4173 170.789 79.2405 170.902C79.0612 171.013 78.8556 171.07 78.6167 171.07C78.3873 171.07 78.1817 171.013 78.0049 170.902C77.8257 170.789 77.687 170.635 77.5866 170.443C77.4887 170.248 77.4386 170.031 77.4386 169.791C77.4386 169.547 77.4887 169.328 77.5866 169.135C77.687 168.941 77.8257 168.787 78.0049 168.676C78.1817 168.563 78.3873 168.506 78.6167 168.506C78.8556 168.506 79.0612 168.563 79.2405 168.676C79.4173 168.787 79.5559 168.941 79.6563 169.135C79.7542 169.328 79.8044 169.547 79.8044 169.791C79.8044 170.031 79.7542 170.248 79.6563 170.443ZM80.5978 167.796C80.5047 167.71 80.3899 167.667 80.2489 167.667C80.1103 167.667 79.9932 167.71 79.9024 167.8C79.8115 167.888 79.7638 167.999 79.7638 168.133V168.144C79.716 168.103 79.6658 168.06 79.6084 168.017C79.465 167.915 79.2954 167.832 79.1018 167.766C78.9083 167.698 78.6956 167.667 78.4638 167.667C78.103 167.667 77.7755 167.755 77.4791 167.938C77.1828 168.119 76.9463 168.368 76.7718 168.687C76.5973 169.006 76.5089 169.373 76.5089 169.791C76.5089 170.205 76.5973 170.572 76.7718 170.889C76.9463 171.208 77.1853 171.459 77.4864 171.64C77.7874 171.821 78.1244 171.912 78.4972 171.912C78.7004 171.912 78.8915 171.88 79.066 171.814C79.2405 171.751 79.3934 171.674 79.5224 171.581C79.6204 171.513 79.6992 171.441 79.7662 171.371C79.7662 171.502 79.8115 171.613 79.9024 171.701C79.9932 171.789 80.1103 171.835 80.2489 171.835C80.3899 171.835 80.5047 171.789 80.5978 171.701C80.6887 171.611 80.7341 171.5 80.7341 171.369V168.133C80.7341 167.995 80.6887 167.881 80.5978 167.796Z" fill="#E35746"/>
<path d="M86.7095 167.741C86.4617 167.741 86.3055 167.837 86.2411 168.032L85.3752 170.231L84.7546 168.635C84.7167 168.544 84.6669 168.474 84.605 168.425C84.5432 168.377 84.4528 168.353 84.3345 168.353C84.1244 168.353 83.9762 168.447 83.89 168.635L83.2529 170.274L82.3796 168.032C82.347 167.93 82.2904 167.855 82.2095 167.809C82.1291 167.764 82.0373 167.741 81.9351 167.741C81.7842 167.741 81.6655 167.789 81.5795 167.886C81.4933 167.983 81.4502 168.093 81.4502 168.215C81.4502 168.276 81.4611 168.335 81.4828 168.391L82.7188 171.543C82.7562 171.645 82.825 171.723 82.9245 171.776C83.0242 171.83 83.1254 171.848 83.2276 171.833C83.4107 171.823 83.5481 171.726 83.6395 171.543L84.2904 169.661L84.9808 171.543C85.0722 171.726 85.2095 171.823 85.3927 171.833C85.5005 171.848 85.6027 171.83 85.6997 171.776C85.7966 171.723 85.864 171.645 85.9019 171.543L87.1378 168.391C87.1484 168.365 87.1566 168.339 87.1622 168.311C87.1675 168.283 87.1701 168.251 87.1701 168.215C87.1701 168.077 87.1244 167.964 87.0327 167.875C86.9413 167.785 86.8335 167.741 86.7095 167.741Z" fill="#E35746"/>
<path d="M88.5103 166.17C88.3702 166.17 88.2533 166.215 88.1589 166.304C88.0646 166.393 88.0176 166.504 88.0176 166.637V171.364C88.0176 171.497 88.0632 171.608 88.155 171.697C88.2464 171.786 88.3594 171.831 88.4942 171.831C88.6343 171.831 88.7512 171.786 88.8456 171.697C88.9399 171.608 88.987 171.497 88.987 171.364V166.637C88.987 166.504 88.9426 166.393 88.8539 166.304C88.7647 166.215 88.6503 166.17 88.5103 166.17Z" fill="#E35746"/>
<path d="M93.0619 170.443C92.9639 170.635 92.8253 170.789 92.6461 170.902C92.4693 171.013 92.2614 171.07 92.0248 171.07C91.7929 171.07 91.5898 171.013 91.4106 170.902C91.2337 170.789 91.0951 170.635 90.9947 170.443C90.8944 170.248 90.8466 170.031 90.8466 169.791C90.8466 169.547 90.8944 169.327 90.9947 169.135C91.0951 168.94 91.2337 168.787 91.4106 168.676C91.5898 168.563 91.7929 168.506 92.0248 168.506C92.2614 168.506 92.4693 168.563 92.6461 168.676C92.8253 168.787 92.9639 168.94 93.0619 169.135C93.1623 169.327 93.2125 169.547 93.2125 169.791C93.2125 170.031 93.1623 170.248 93.0619 170.443ZM94.0035 167.795C93.9127 167.709 93.798 167.666 93.657 167.666C93.516 167.666 93.4013 167.709 93.3105 167.8C93.2173 167.888 93.1719 167.999 93.1719 168.133V168.144C93.124 168.103 93.0739 168.06 93.0141 168.017C92.8731 167.915 92.7035 167.832 92.5099 167.766C92.3164 167.698 92.1036 167.666 91.8718 167.666C91.5109 167.666 91.1812 167.755 90.8849 167.938C90.5886 168.119 90.3543 168.368 90.1799 168.687C90.0031 169.006 89.917 169.373 89.917 169.791C89.917 170.205 90.0031 170.572 90.1799 170.889C90.3543 171.208 90.5934 171.459 90.8944 171.64C91.1955 171.821 91.5325 171.911 91.9029 171.911C92.1084 171.911 92.2996 171.88 92.4741 171.814C92.6484 171.751 92.8015 171.674 92.9305 171.581C93.0285 171.513 93.105 171.441 93.1719 171.371C93.1742 171.502 93.2196 171.613 93.3105 171.701C93.4013 171.789 93.516 171.835 93.657 171.835C93.798 171.835 93.9127 171.789 94.0035 171.701C94.0967 171.611 94.1421 171.5 94.1421 171.368V168.133C94.1421 167.994 94.0967 167.881 94.0035 167.795Z" fill="#E35746"/>
<path d="M98.7613 168.53C98.6858 168.268 98.5473 168.057 98.3452 167.899C98.1434 167.741 97.8484 167.662 97.4605 167.662C97.2831 167.662 97.1187 167.689 96.9678 167.742C96.8169 167.796 96.6795 167.866 96.5559 167.953C96.432 168.039 96.3268 168.133 96.2407 168.232C96.2063 168.271 96.1886 168.305 96.1601 168.343V166.637C96.1601 166.504 96.1141 166.393 96.0227 166.304C95.931 166.215 95.8153 166.17 95.6752 166.17C95.5352 166.17 95.4195 166.215 95.3278 166.304C95.2361 166.393 95.1904 166.504 95.1904 166.637V171.364C95.1904 171.497 95.2361 171.608 95.3278 171.697C95.4195 171.786 95.5352 171.831 95.6752 171.831C95.8153 171.831 95.931 171.786 96.0227 171.697C96.1141 171.608 96.1601 171.497 96.1601 171.364V169.406C96.1601 169.238 96.1963 169.086 96.2689 168.951C96.3419 168.816 96.4507 168.707 96.5963 168.626C96.7416 168.544 96.9165 168.503 97.1213 168.503C97.3314 168.503 97.4931 168.544 97.6061 168.626C97.7193 168.707 97.7972 168.816 97.8403 168.951C97.8833 169.086 97.905 169.238 97.905 169.406V171.364C97.905 171.497 97.9507 171.608 98.0424 171.697C98.1338 171.786 98.2495 171.831 98.3899 171.831C98.5296 171.831 98.6457 171.786 98.737 171.697C98.8287 171.608 98.8744 171.497 98.8744 171.364V169.406C98.8744 169.085 98.8366 168.793 98.7613 168.53Z" fill="#E35746"/>
<path d="M89.2433 111.234V111.303C89.2433 117.159 84.2419 121.918 78.0566 121.918C71.8713 121.918 66.8457 117.159 66.8457 111.303C66.8457 109.312 67.4257 107.436 68.4404 105.858C73.3451 109.244 79.3855 111.234 85.7399 111.234H89.2433Z" fill="#376266"/>
<path d="M166.218 57.6781L160.127 87.8639C158.249 97.1641 151.27 104.505 142.254 107.492C140.098 103.778 135.926 101.255 131.141 101.255C125.757 101.255 121.145 104.453 119.314 108.947H85.7429C73.0699 108.947 62.1079 100.599 59.3885 88.8801L55.0724 67.0892C54.236 62.8712 50.3479 59.8165 45.817 59.8165H28.7922C28.5508 59.8165 28.3572 59.6332 28.3572 59.4046V54.6753C28.3572 49.4935 32.7926 45.2915 38.2676 45.2915H46.032C57.6129 45.2915 67.5782 53.0507 69.8127 63.8125L74.3723 85.7663C75.5457 90.8216 80.2751 94.4216 85.7405 94.4216H133.204C138.997 94.4216 143.974 90.5251 145.062 85.1351L149.012 65.5414C149.547 62.8871 147.401 60.4297 144.548 60.4297H128.07C125.561 60.4297 123.525 62.3553 123.525 64.7335V66.8854C123.525 72.4497 118.762 76.9595 112.886 76.9595H108.62C108.379 76.9595 108.185 76.7762 108.185 76.5477V56.2254C108.185 50.5254 113.065 45.9047 119.087 45.9047H155.407C157.902 45.9047 160.416 46.5292 162.373 47.991C165.53 50.3511 166.945 54.069 166.218 57.6781Z" fill="#376266"/>
<path d="M141.459 113.255C141.459 118.652 136.839 123.026 131.14 123.026C125.44 123.026 120.82 118.652 120.82 113.255C120.82 111.71 121.2 110.246 121.877 108.947C123.557 105.711 127.072 103.485 131.14 103.485C134.863 103.485 138.127 105.351 139.941 108.153C140.904 109.637 141.459 111.386 141.459 113.255Z" fill="#E35746"/>
</svg>
