<svg width="80" height="32" viewBox="0 0 80 32" fill="none" xmlns="http://www.w3.org/2000/svg">
<path d="M32.7405 15.3061C32.9171 14.2485 33.0056 13.1474 33.0056 12.003C33.0056 11.388 32.977 10.7616 32.9201 10.1249C32.8629 9.48773 32.7887 8.83504 32.6977 8.16537C32.5152 6.89196 32.2447 5.65311 31.8853 4.44943C31.5262 3.24576 31.1015 2.02289 30.6114 0.78153H30.5942L27.1741 2.02862C27.6187 3.10799 28.0004 4.20645 28.3197 5.3234C28.6387 6.44096 28.8897 7.55549 29.0723 8.66732C29.2434 9.83341 29.3289 10.9505 29.3289 12.0195C29.3289 13.703 29.1208 15.2282 28.7046 16.5934C28.2884 17.9597 27.6699 19.1169 26.8491 20.0669H22.5737V20.0815L20.1454 20.0669C20.0882 19.7541 20.0312 19.441 19.9743 19.1278C19.9171 18.8147 19.8601 18.4963 19.8032 18.1722C19.6436 17.2549 19.4724 16.3376 19.2902 15.4197C19.1078 14.5023 18.8714 13.6169 18.5807 12.764C18.2897 11.9117 17.9248 11.1073 17.486 10.3514C17.047 9.59606 16.4912 8.92116 15.8188 8.32736C15.146 7.73397 14.3334 7.24227 13.3818 6.85377C12.4298 6.46527 11.3041 6.20621 10.0042 6.07678C9.10341 6.01176 8.23135 6.06844 7.38784 6.24651C6.544 6.42447 5.75175 6.70002 5.01076 7.07254C4.26967 7.44506 3.59118 7.90631 2.97574 8.45689C2.35998 9.00738 1.83252 9.62289 1.39389 10.3029C0.954732 10.9829 0.612785 11.7146 0.367839 12.4967C0.122364 13.2799 0 14.0972 0 14.9502C0 16.1807 0.245262 17.3359 0.735365 18.4153C1.22557 19.4952 1.89557 20.4368 2.7447 21.2412C3.59395 22.0455 4.59166 22.6822 5.73764 23.1517C6.8833 23.6212 8.10601 23.856 9.40587 23.856C10.5573 23.856 11.6261 23.678 12.6123 23.322C13.5981 22.9655 14.5302 22.4635 15.4083 21.8159V21.7994L13.0655 19.1278C12.541 19.5163 11.9794 19.8218 11.3809 20.0425C10.7823 20.2639 10.124 20.3749 9.40587 20.3749C8.61903 20.3749 7.87794 20.232 7.18269 19.9456C6.48712 19.6598 5.88006 19.2713 5.36141 18.7796C4.84234 18.2884 4.43204 17.7136 4.13011 17.0553C3.82775 16.3968 3.67672 15.6952 3.67672 14.9502C3.67672 14.1948 3.83348 13.4791 4.14709 12.8048C4.46059 12.1299 4.88808 11.5443 5.42976 11.0474C5.97112 10.5511 6.60132 10.1651 7.31949 9.89019C8.03766 9.61465 8.80731 9.48773 9.62821 9.50933C10.4717 9.59606 11.2014 9.78488 11.8171 10.0759C12.4326 10.3674 12.9628 10.7373 13.4074 11.1852C13.852 11.6336 14.2253 12.1464 14.5278 12.7238C14.8296 13.3011 15.0832 13.9166 15.2887 14.5693C15.4938 15.223 15.6649 15.903 15.8017 16.61C15.9384 17.3168 16.0693 18.0216 16.1948 18.7228C16.2976 19.3166 16.4002 19.8996 16.5027 20.4718C16.6054 21.044 16.7307 21.6214 16.8789 22.2044C16.9817 22.6037 17.198 22.9252 17.5288 23.1677C17.8592 23.4107 18.2355 23.532 18.6575 23.532L22.5737 23.5474V23.5485H28.4225L28.9698 23.0304C29.6307 22.4041 30.2122 21.6921 30.7141 20.8929C31.2157 20.0942 31.6347 19.2279 31.9709 18.294C32.3071 17.3602 32.5637 16.3644 32.7405 15.3061Z" fill="#376266"/>
<path d="M49.7864 17.7376C49.6788 18.5794 49.521 19.3578 49.318 20.0705H44.2205V20.0864C43.4343 20.0864 42.6935 19.9597 41.9981 19.7063C41.3026 19.4528 40.6957 19.0953 40.1771 18.6382C39.6585 18.1788 39.2475 17.6358 38.9439 17.009C38.6428 16.3844 38.4922 15.6988 38.4922 14.9521C38.4922 14.2075 38.6428 13.5039 38.9439 12.841C39.2475 12.1757 39.6585 11.5986 40.1771 11.1076C40.6957 10.6165 41.3026 10.2273 41.9981 9.94221C42.6935 9.65491 43.4343 9.51221 44.2205 9.51221C45.0068 9.51221 45.7476 9.65491 46.4431 9.94221C47.1384 10.2273 47.7503 10.6188 48.2736 11.1166C48.7969 11.6122 49.2104 12.1892 49.5139 12.8477C49.815 13.5062 49.9656 14.2075 49.9656 14.9521C49.9561 15.9681 49.8963 16.8959 49.7864 17.7376ZM77.663 15.2281C76.7908 13.3274 75.4692 11.6709 73.7032 10.2566C72.0041 8.89681 69.9011 7.83553 67.3917 7.07532C64.8849 6.31491 61.9599 5.93485 58.6189 5.93485C58.6094 5.93485 58.5878 5.95294 58.5592 5.99143C58.5305 6.02981 58.4946 6.15422 58.4492 6.37148C58.4038 6.58643 58.3441 6.93041 58.2701 7.3988C58.196 7.86949 58.1004 8.54157 57.9881 9.41504H58.6189C61.5034 9.41504 64.0007 9.72274 66.1109 10.3382C68.2186 10.9536 69.9631 11.8112 71.3421 12.9133C72.482 13.8297 73.3781 14.8911 74.0282 16.0948C74.6782 17.2986 75.094 18.6247 75.2756 20.0705H53.0794C53.445 18.5591 53.6267 16.8528 53.6267 14.9521C53.6267 13.7121 53.3806 12.5512 52.8906 11.4719C52.4007 10.3925 51.7293 9.45122 50.8736 8.64568C50.0181 7.84226 49.0193 7.20877 47.8817 6.74259C46.7394 6.27873 45.5206 6.048 44.2205 6.048C42.9206 6.048 41.7018 6.27873 40.5619 6.74259C39.4219 7.20877 38.4254 7.84226 37.577 8.64568C36.7286 9.45122 36.0548 10.3948 35.56 11.4809C35.0629 12.5648 34.8145 13.7234 34.8145 14.9521C34.8145 16.1831 35.0606 17.3235 35.5505 18.3688C36.0403 19.4167 36.7143 20.3262 37.5674 21.0979C38.4229 21.8695 39.4219 22.4715 40.5619 22.9036C41.7018 23.3358 42.9206 23.5507 44.2205 23.5507H47.6069C47.2413 24.0373 46.8206 24.4739 46.3403 24.8632C45.793 25.3157 45.198 25.696 44.5551 26.0059C43.9099 26.3114 43.2264 26.5603 42.5023 26.7504C41.7782 26.9382 41.0254 27.0739 40.244 27.1554C39.4625 27.2346 38.6692 27.2753 37.859 27.2753V30.7578C38.8746 30.7578 39.8736 30.7012 40.8605 30.5881C41.8452 30.4749 42.8011 30.2872 43.7259 30.0293C44.6483 29.7691 45.5325 29.4318 46.3761 29.0155C47.2197 28.6014 48.0107 28.0854 48.7516 27.47C49.3801 26.9517 49.9512 26.3725 50.4722 25.7299C50.9908 25.0871 51.4496 24.3608 51.8487 23.5507H79.0396V21.4939C78.9942 19.2175 78.5353 17.1289 77.663 15.2281Z" fill="#376266"/>
<path d="M66.5175 25.8717C65.3438 25.8717 64.3923 26.7726 64.3923 27.8838C64.3923 28.9951 65.3438 29.896 66.5175 29.896C67.6911 29.896 68.6425 28.9951 68.6425 27.8838C68.6425 26.7726 67.6911 25.8717 66.5175 25.8717Z" fill="#E35746"/>
<path d="M6.7887 4.02441C7.44213 4.02441 8.01937 3.73922 8.40918 3.29978C8.79899 3.73922 9.37622 4.02441 10.0298 4.02441C11.2033 4.02441 12.1548 3.12352 12.1548 2.01219C12.1548 0.900868 11.2033 7.10487e-05 10.0298 7.10487e-05C9.37622 7.10487e-05 8.79899 0.285263 8.40918 0.724607C8.01937 0.285263 7.44213 7.10487e-05 6.7887 7.10487e-05C5.61502 7.10487e-05 4.66357 0.900868 4.66357 2.01219C4.66357 3.12352 5.61502 4.02441 6.7887 4.02441Z" fill="#E35746"/>
<path d="M11.3428 26.2047C11.208 26.2047 11.0897 26.2495 10.9875 26.3386C10.8848 26.4282 10.8339 26.5391 10.8339 26.6716V29.8845C10.8339 30.032 10.7905 30.1702 10.7047 30.2972C10.6182 30.4248 10.5052 30.5269 10.3651 30.6035C10.2251 30.6801 10.0745 30.718 9.91281 30.718C9.77802 30.718 9.65841 30.6988 9.55313 30.6608C9.44828 30.6222 9.34183 30.5574 9.23432 30.4659C9.16959 30.4043 9.09827 30.3508 9.02005 30.3053C8.94205 30.2592 8.86255 30.2362 8.78168 30.2362C8.67948 30.2362 8.5759 30.2798 8.47073 30.3663C8.36587 30.4529 8.31323 30.5599 8.31323 30.6875C8.31323 30.774 8.3455 30.8637 8.41023 30.9552C8.57717 31.1744 8.79251 31.3431 9.05645 31.4601C9.3205 31.5771 9.60577 31.6362 9.91281 31.6362C10.2737 31.6362 10.5996 31.5547 10.8905 31.3909C11.1814 31.2278 11.4128 31.0137 11.5851 30.7485C11.7573 30.4833 11.8437 30.1951 11.8437 29.8845V26.6716C11.8437 26.5391 11.7978 26.4282 11.7064 26.3386C11.6147 26.2495 11.4937 26.2047 11.3428 26.2047Z" fill="#E35746"/>
<path d="M15.9235 30.1681C15.8231 30.3604 15.6845 30.5143 15.5077 30.6275C15.3284 30.7384 15.1228 30.795 14.8839 30.795C14.6545 30.795 14.4489 30.7384 14.2721 30.6275C14.0929 30.5143 13.9543 30.3604 13.8539 30.1681C13.7559 29.9735 13.7058 29.7562 13.7058 29.5164C13.7058 29.272 13.7559 29.0526 13.8539 28.8602C13.9543 28.6656 14.0929 28.5118 14.2721 28.4009C14.4489 28.2878 14.6545 28.2312 14.8839 28.2312C15.1228 28.2312 15.3284 28.2878 15.5077 28.4009C15.6845 28.5118 15.8231 28.6656 15.9235 28.8602C16.0214 29.0526 16.0716 29.272 16.0716 29.5164C16.0716 29.7562 16.0214 29.9735 15.9235 30.1681ZM16.8651 27.5206C16.7719 27.4347 16.6571 27.3917 16.5161 27.3917C16.3775 27.3917 16.2604 27.4347 16.1696 27.5251C16.0787 27.6134 16.031 27.7242 16.031 27.8578V27.8691C15.9832 27.8283 15.933 27.7854 15.8756 27.7424C15.7322 27.6405 15.5626 27.5568 15.3691 27.4913C15.1755 27.4234 14.9628 27.3917 14.731 27.3917C14.3702 27.3917 14.0427 27.4798 13.7464 27.6631C13.45 27.8442 13.2135 28.0931 13.039 28.4122C12.8645 28.7312 12.7761 29.0978 12.7761 29.5164C12.7761 29.9305 12.8645 30.2971 13.039 30.6139C13.2135 30.933 13.4525 31.1841 13.7536 31.3651C14.0547 31.5462 14.3916 31.6367 14.7644 31.6367C14.9676 31.6367 15.1587 31.605 15.3332 31.5393C15.5077 31.476 15.6606 31.3992 15.7896 31.3063C15.8876 31.2385 15.9665 31.166 16.0334 31.0959C16.0334 31.2271 16.0787 31.3381 16.1696 31.4262C16.2604 31.5144 16.3775 31.5597 16.5161 31.5597C16.6571 31.5597 16.7719 31.5144 16.8651 31.4262C16.9559 31.3357 17.0013 31.2249 17.0013 31.0937V27.8578C17.0013 27.7197 16.9559 27.6065 16.8651 27.5206Z" fill="#E35746"/>
<path d="M22.9768 27.466C22.729 27.466 22.5728 27.5625 22.5084 27.7567L21.6425 29.9564L21.022 28.3606C20.9841 28.269 20.9342 28.1987 20.8723 28.1502C20.8105 28.1022 20.7201 28.078 20.6018 28.078C20.3918 28.078 20.2435 28.172 20.1573 28.3606L19.5202 29.9988L18.6469 27.7567C18.6143 27.6546 18.5578 27.5806 18.4769 27.5345C18.3964 27.489 18.3046 27.466 18.2024 27.466C18.0515 27.466 17.9329 27.5146 17.8468 27.611C17.7606 27.7082 17.7175 27.8177 17.7175 27.9403C17.7175 28.0014 17.7285 28.0599 17.7501 28.116L18.9861 31.2678C19.0235 31.3699 19.0923 31.4477 19.1919 31.5012C19.2915 31.5548 19.3928 31.5735 19.495 31.5585C19.678 31.5479 19.8155 31.4514 19.9069 31.2678L20.5577 29.386L21.2481 31.2678C21.3395 31.4514 21.4768 31.5479 21.66 31.5585C21.7678 31.5735 21.87 31.5548 21.967 31.5012C22.0639 31.4477 22.1313 31.3699 22.1692 31.2678L23.4052 28.116C23.4157 28.0904 23.424 28.0636 23.4295 28.0356C23.4348 28.0077 23.4374 27.9758 23.4374 27.9403C23.4374 27.8022 23.3917 27.6889 23.3 27.5999C23.2086 27.5102 23.1008 27.466 22.9768 27.466Z" fill="#E35746"/>
<path d="M24.7777 25.8955C24.6376 25.8955 24.5206 25.9397 24.4263 26.0294C24.3319 26.1184 24.2849 26.2292 24.2849 26.3618V31.0893C24.2849 31.2218 24.3305 31.3327 24.4223 31.4223C24.5137 31.5113 24.6268 31.5562 24.7615 31.5562C24.9016 31.5562 25.0186 31.5113 25.1129 31.4223C25.2073 31.3327 25.2543 31.2218 25.2543 31.0893V26.3618C25.2543 26.2292 25.2099 26.1184 25.1212 26.0294C25.0321 25.9397 24.9177 25.8955 24.7777 25.8955Z" fill="#E35746"/>
<path d="M29.3292 30.1681C29.2313 30.3604 29.0927 30.5143 28.9134 30.6275C28.7366 30.7384 28.5287 30.795 28.2922 30.795C28.0603 30.795 27.8571 30.7384 27.678 30.6275C27.5011 30.5143 27.3625 30.3604 27.2621 30.1681C27.1618 29.9735 27.1139 29.7562 27.1139 29.5164C27.1139 29.272 27.1618 29.0526 27.2621 28.8602C27.3625 28.6656 27.5011 28.5118 27.678 28.4009C27.8571 28.2878 28.0603 28.2312 28.2922 28.2312C28.5287 28.2312 28.7366 28.2878 28.9134 28.4009C29.0927 28.5118 29.2313 28.6656 29.3292 28.8602C29.4296 29.0526 29.4798 29.272 29.4798 29.5164C29.4798 29.7562 29.4296 29.9735 29.3292 30.1681ZM30.2708 27.5206C30.1801 27.4347 30.0653 27.3917 29.9243 27.3917C29.7834 27.3917 29.6686 27.4347 29.5778 27.5251C29.4846 27.6134 29.4392 27.7242 29.4392 27.8578V27.8691C29.3913 27.8283 29.3412 27.7854 29.2815 27.7424C29.1404 27.6405 28.9708 27.5568 28.7773 27.4913C28.5837 27.4234 28.3709 27.3917 28.1391 27.3917C27.7783 27.3917 27.4485 27.4798 27.1522 27.6631C26.8559 27.8442 26.6217 28.0931 26.4472 28.4122C26.2704 28.7312 26.1843 29.0978 26.1843 29.5164C26.1843 29.9305 26.2704 30.2971 26.4472 30.6139C26.6217 30.933 26.8607 31.1841 27.1618 31.3651C27.4629 31.5462 27.7998 31.6367 28.1702 31.6367C28.3758 31.6367 28.5669 31.605 28.7414 31.5393C28.9158 31.476 29.0688 31.3992 29.1979 31.3063C29.2958 31.2385 29.3723 31.166 29.4392 31.0959C29.4415 31.2271 29.4869 31.3381 29.5778 31.4262C29.6686 31.5144 29.7834 31.5597 29.9243 31.5597C30.0653 31.5597 30.1801 31.5144 30.2708 31.4262C30.364 31.3357 30.4094 31.2249 30.4094 31.0937V27.8578C30.4094 27.7197 30.364 27.6065 30.2708 27.5206Z" fill="#E35746"/>
<path d="M35.0287 28.2549C34.9531 27.9929 34.8146 27.7824 34.6125 27.6244C34.4107 27.4662 34.1158 27.3871 33.7279 27.3871C33.5504 27.3871 33.386 27.4139 33.2351 27.4674C33.0842 27.521 32.9469 27.5913 32.8232 27.6778C32.6994 27.7643 32.5941 27.8578 32.508 27.9567C32.4736 27.9964 32.4559 28.0305 32.4275 28.0683V26.3618C32.4275 26.2293 32.3814 26.1184 32.29 26.0294C32.1983 25.9397 32.0826 25.8955 31.9426 25.8955C31.8026 25.8955 31.6868 25.9397 31.5951 26.0294C31.5034 26.1184 31.4578 26.2293 31.4578 26.3618V31.0893C31.4578 31.2219 31.5034 31.3327 31.5951 31.4223C31.6868 31.5113 31.8026 31.5562 31.9426 31.5562C32.0826 31.5562 32.1983 31.5113 32.29 31.4223C32.3814 31.3327 32.4275 31.2219 32.4275 31.0893V29.1308C32.4275 28.9627 32.4637 28.8109 32.5362 28.6758C32.6093 28.5406 32.718 28.4323 32.8637 28.3508C33.0089 28.2692 33.1838 28.2282 33.3887 28.2282C33.5987 28.2282 33.7604 28.2692 33.8735 28.3508C33.9866 28.4323 34.0645 28.5406 34.1076 28.6758C34.1507 28.8109 34.1723 28.9627 34.1723 29.1308V31.0893C34.1723 31.2219 34.2181 31.3327 34.3098 31.4223C34.4011 31.5113 34.5168 31.5562 34.6572 31.5562C34.7969 31.5562 34.913 31.5113 35.0044 31.4223C35.0961 31.3327 35.1417 31.2219 35.1417 31.0893V29.1308C35.1417 28.8096 35.1039 28.5176 35.0287 28.2549Z" fill="#E35746"/>
</svg>
